<?xml version="1.0" standalone="no"?>
<!DOCTYPE svg PUBLIC "-//W3C//DTD SVG 20010904//EN"
 "http://www.w3.org/TR/2001/REC-SVG-20010904/DTD/svg10.dtd">
<svg version="1.0" xmlns="http://www.w3.org/2000/svg"
 width="48.000000pt" height="48.000000pt" viewBox="0 0 48.000000 48.000000"
 preserveAspectRatio="xMidYMid meet">

<g transform="translate(0.000000,48.000000) scale(0.100000,-0.100000)"
fill="#000000" stroke="none">
<path d="M130 397 c0 -32 16 -44 23 -17 3 10 -1 24 -9 31 -11 9 -14 7 -14 -14z"/>
<path d="M349 400 c-10 -6 -15 -18 -12 -33 3 -14 -2 -29 -11 -36 -9 -8 -16
-20 -16 -28 0 -13 3 -13 15 -3 9 7 14 15 11 17 -2 3 7 21 20 40 34 50 31 65
-7 43z"/>
<path d="M156 328 c10 -14 21 -24 23 -22 3 3 -6 15 -18 27 l-24 22 19 -27z"/>
<path d="M198 333 c7 -3 16 -2 19 1 4 3 -2 6 -13 5 -11 0 -14 -3 -6 -6z"/>
<path d="M268 333 c7 -3 16 -2 19 1 4 3 -2 6 -13 5 -11 0 -14 -3 -6 -6z"/>
<path d="M262 275 c-11 -12 -10 -15 3 -15 8 0 15 7 15 15 0 18 -2 18 -18 0z"/>
<path d="M164 255 c-5 -19 -1 -32 11 -43 16 -16 17 -16 6 5 -13 25 -14 44 -3
41 4 -2 8 1 10 7 2 5 -1 11 -7 13 -6 2 -13 -9 -17 -23z"/>
<path d="M360 250 c-8 -5 -12 -11 -10 -14 3 -2 14 2 24 10 22 15 10 19 -14 4z"/>
<path d="M295 233 c-17 -13 -17 -15 -2 -10 13 5 20 0 27 -19 5 -13 9 -30 7
-36 -1 -7 6 -14 16 -16 10 -2 17 2 17 12 0 9 5 16 10 16 6 0 10 6 10 14 0 9
-7 12 -19 9 -14 -3 -23 3 -33 20 -12 24 -14 24 -33 10z"/>
<path d="M210 230 c0 -5 7 -7 15 -4 8 4 15 8 15 10 0 2 -7 4 -15 4 -8 0 -15
-4 -15 -10z"/>
<path d="M160 150 c0 -4 9 -10 21 -13 12 -3 18 -10 14 -16 -4 -7 4 -11 22 -10
27 0 27 1 6 9 -13 5 -23 13 -23 19 0 5 -9 11 -20 14 -11 3 -20 2 -20 -3z"/>
<path d="M62 127 c-10 -11 -6 -14 18 -14 18 0 29 5 27 11 -6 17 -32 19 -45 3z"/>
<path d="M323 125 c-3 -9 -3 -18 -1 -21 3 -3 8 4 11 16 6 23 -1 27 -10 5z"/>
<path d="M278 113 c6 -2 18 -2 25 0 6 3 1 5 -13 5 -14 0 -19 -2 -12 -5z"/>
<path d="M80 73 c0 -20 3 -24 9 -14 5 8 16 11 29 7 11 -4 64 -7 117 -7 72 -1
100 3 106 13 7 10 9 11 9 0 0 -16 42 -12 47 4 2 7 -15 11 -47 11 -34 1 -48 -3
-44 -11 3 -6 -2 -2 -10 8 -9 11 -16 15 -16 10 0 -6 -10 -10 -22 -9 -13 1 -29
-3 -37 -9 -12 -9 -13 -8 -6 3 6 11 2 13 -19 9 -14 -3 -29 -1 -32 4 -3 5 -13 1
-21 -9 -8 -10 -12 -13 -9 -7 3 7 -4 14 -17 18 -35 9 -37 8 -37 -21z"/>
</g>
</svg>
